<svg width="13" height="13" viewBox="0 0 13 13" fill="none" xmlns="http://www.w3.org/2000/svg">
<path d="M5.24983 10.5C5.24978 10.6084 5.27994 10.7147 5.33692 10.8069C5.3939 10.8992 5.47544 10.9737 5.57241 11.0221L6.73908 11.6055C6.82804 11.6499 6.92688 11.6709 7.02622 11.6664C7.12556 11.6619 7.22211 11.6321 7.30668 11.5798C7.39126 11.5274 7.46105 11.4544 7.50944 11.3675C7.55783 11.2806 7.58321 11.1828 7.58316 11.0834V7.00004C7.58329 6.71093 7.69077 6.43217 7.88475 6.21779L12.0982 1.55754C12.1737 1.47387 12.2233 1.37011 12.2411 1.25881C12.2589 1.14751 12.2441 1.03343 12.1984 0.930384C12.1528 0.827335 12.0782 0.739721 11.9838 0.678138C11.8894 0.616554 11.7792 0.58364 11.6665 0.583374H1.1665C1.05368 0.583415 0.943304 0.616166 0.848726 0.677662C0.754148 0.739157 0.679431 0.826758 0.633625 0.929852C0.587819 1.03295 0.572889 1.14711 0.590645 1.25852C0.6084 1.36993 0.658079 1.47379 0.733664 1.55754L4.94825 6.21779C5.14223 6.43217 5.2497 6.71093 5.24983 7.00004V10.5Z" stroke="#1E293B" stroke-width="1.16667" stroke-linecap="round" stroke-linejoin="round"/>
</svg>
