<svg width="13" height="13" viewBox="0 0 13 13" fill="none" xmlns="http://www.w3.org/2000/svg">
<path d="M5.24979 10.5C5.24974 10.6084 5.27989 10.7147 5.33687 10.8069C5.39385 10.8992 5.4754 10.9737 5.57237 11.0221L6.73904 11.6055C6.82799 11.6499 6.92684 11.6709 7.02618 11.6664C7.12552 11.6619 7.22207 11.6321 7.30664 11.5798C7.39121 11.5274 7.46101 11.4544 7.5094 11.3675C7.55779 11.2806 7.58317 11.1828 7.58312 11.0834V7.00004C7.58325 6.71093 7.69073 6.43217 7.8847 6.21779L12.0981 1.55754C12.1736 1.47387 12.2233 1.37011 12.2411 1.25881C12.2589 1.14751 12.2441 1.03343 12.1984 0.930384C12.1527 0.827335 12.0782 0.739721 11.9838 0.678138C11.8894 0.616554 11.7792 0.58364 11.6665 0.583374H1.16646C1.05364 0.583415 0.943262 0.616166 0.848684 0.677662C0.754106 0.739157 0.679389 0.826758 0.633583 0.929852C0.587777 1.03295 0.572847 1.14711 0.590603 1.25852C0.608358 1.36993 0.658037 1.47379 0.733622 1.55754L4.9482 6.21779C5.14218 6.43217 5.24966 6.71093 5.24979 7.00004V10.5Z" stroke="#C4CFE1" stroke-width="1.16667" stroke-linecap="round" stroke-linejoin="round"/>
</svg>
