<svg width="18" height="18" viewBox="0 0 18 18" fill="none" xmlns="http://www.w3.org/2000/svg">
<g clip-path="url(#clip0_2023_2940)">
<path d="M6 10.5C8.48528 10.5 10.5 8.48528 10.5 6C10.5 3.51472 8.48528 1.5 6 1.5C3.51472 1.5 1.5 3.51472 1.5 6C1.5 8.48528 3.51472 10.5 6 10.5Z" stroke="#8197B6" stroke-width="1.5" stroke-linecap="round" stroke-linejoin="round"/>
<path d="M13.5675 7.77747C14.2765 8.04179 14.9074 8.48061 15.4018 9.05336C15.8963 9.62612 16.2383 10.3143 16.3963 11.0543C16.5543 11.7942 16.5232 12.5621 16.3058 13.2869C16.0884 14.0116 15.6918 14.6698 15.1526 15.2007C14.6134 15.7315 13.949 16.1178 13.221 16.3239C12.4929 16.5299 11.7247 16.5491 10.9873 16.3796C10.2499 16.21 9.56709 15.8573 9.00213 15.354C8.43716 14.8506 8.00823 14.213 7.755 13.5" stroke="#8197B6" stroke-width="1.5" stroke-linecap="round" stroke-linejoin="round"/>
<path d="M5.25 4.5H6V7.5" stroke="#8197B6" stroke-width="1.5" stroke-linecap="round" stroke-linejoin="round"/>
<path d="M12.5325 10.41L13.0575 10.9425L10.9425 13.0575" stroke="#8197B6" stroke-width="1.5" stroke-linecap="round" stroke-linejoin="round"/>
</g>
<defs>
<clipPath id="clip0_2023_2940">
<rect width="18" height="18" fill="white"/>
</clipPath>
</defs>
</svg>
