<svg width="13" height="14" viewBox="0 0 13 14" fill="none" xmlns="http://www.w3.org/2000/svg">
<g clip-path="url(#clip0_1_263)">
<path d="M12.3118 6.94384C12.539 6.66793 12.539 6.39203 12.3118 6.11612L9.00094 2.80526C8.72503 2.57804 8.44913 2.57804 8.17322 2.80526C7.94601 3.08116 7.94601 3.35707 8.17322 3.63298L10.486 5.94571H0.602061C0.245008 5.97817 0.0502512 6.17292 0.0177917 6.52998C0.0502512 6.88703 0.245008 7.08179 0.602061 7.11425H10.486L8.17322 9.42698C7.94601 9.70289 7.94601 9.97879 8.17322 10.2547C8.44913 10.4819 8.72503 10.4819 9.00094 10.2547L12.3118 6.94384Z" fill="#6C757D"/>
</g>
<defs>
<clipPath id="clip0_1_263">
<rect width="12.5" height="13" fill="white" transform="matrix(1 0 0 -1 0 13.03)"/>
</clipPath>
</defs>
</svg>
