<svg width="13" height="18" viewBox="0 0 13 18" fill="none" xmlns="http://www.w3.org/2000/svg">
<g clip-path="url(#clip0_3_1137)">
<path d="M4.20754 3.55618V6.25281H1.51091V3.55618H4.20754ZM1.51091 2.20786C1.13638 2.22659 0.818028 2.35768 0.555856 2.60112C0.31241 2.86329 0.181324 3.18165 0.162598 3.55618V6.25281C0.181324 6.62734 0.31241 6.94569 0.555856 7.20786C0.818028 7.45131 1.13638 7.58239 1.51091 7.60112H4.20754C4.58207 7.58239 4.90043 7.45131 5.1626 7.20786C5.40604 6.94569 5.53713 6.62734 5.55586 6.25281V3.55618C5.53713 3.18165 5.40604 2.86329 5.1626 2.60112C4.90043 2.35768 4.58207 2.22659 4.20754 2.20786H1.51091ZM4.20754 10.7472V13.4438H1.51091V10.7472H4.20754ZM1.51091 9.39887C1.13638 9.4176 0.818028 9.54869 0.555856 9.79213C0.31241 10.0543 0.181324 10.3727 0.162598 10.7472V13.4438C0.181324 13.8184 0.31241 14.1367 0.555856 14.3989C0.818028 14.6423 1.13638 14.7734 1.51091 14.7921H4.20754C4.58207 14.7734 4.90043 14.6423 5.1626 14.3989C5.40604 14.1367 5.53713 13.8184 5.55586 13.4438V10.7472C5.53713 10.3727 5.40604 10.0543 5.1626 9.79213C4.90043 9.54869 4.58207 9.4176 4.20754 9.39887H1.51091ZM8.70192 3.55618H11.3986V6.25281H8.70192V3.55618ZM7.35361 3.55618V6.25281C7.37234 6.62734 7.50342 6.94569 7.74687 7.20786C8.00904 7.45131 8.32739 7.58239 8.70192 7.60112H11.3986C11.7731 7.58239 12.0914 7.45131 12.3536 7.20786C12.5971 6.94569 12.7281 6.62734 12.7469 6.25281V3.55618C12.7281 3.18165 12.5971 2.86329 12.3536 2.60112C12.0914 2.35768 11.7731 2.22659 11.3986 2.20786H8.70192C8.32739 2.22659 8.00904 2.35768 7.74687 2.60112C7.50342 2.86329 7.37234 3.18165 7.35361 3.55618ZM2.18507 4.67977V5.12921C2.2038 5.41011 2.35361 5.55992 2.63451 5.57865H3.08395C3.36485 5.55992 3.51466 5.41011 3.53338 5.12921V4.67977C3.51466 4.39887 3.36485 4.24906 3.08395 4.23033H2.63451C2.35361 4.24906 2.2038 4.39887 2.18507 4.67977ZM2.63451 11.4213C2.35361 11.4401 2.2038 11.5899 2.18507 11.8708V12.3202C2.2038 12.6011 2.35361 12.7509 2.63451 12.7697H3.08395C3.36485 12.7509 3.51466 12.6011 3.53338 12.3202V11.8708C3.51466 11.5899 3.36485 11.4401 3.08395 11.4213H2.63451ZM9.37608 4.67977V5.12921C9.39481 5.41011 9.54462 5.55992 9.82552 5.57865H10.275C10.5559 5.55992 10.7057 5.41011 10.7244 5.12921V4.67977C10.7057 4.39887 10.5559 4.24906 10.275 4.23033H9.82552C9.54462 4.24906 9.39481 4.39887 9.37608 4.67977ZM7.35361 9.84831V14.3427C7.37234 14.6236 7.52215 14.7734 7.80305 14.7921H8.70192C8.98282 14.7734 9.13264 14.6236 9.15136 14.3427V12.5449C9.17009 12.264 9.3199 12.1142 9.6008 12.0955C9.8817 12.1142 10.0315 12.264 10.0502 12.5449C10.069 12.8258 10.2188 12.9757 10.4997 12.9944H12.2974C12.5783 12.9757 12.7281 12.8258 12.7469 12.5449V9.84831C12.7281 9.56741 12.5783 9.4176 12.2974 9.39887C12.0165 9.4176 11.8667 9.56741 11.848 9.84831C11.8293 10.1292 11.6795 10.279 11.3986 10.2978H10.4997C10.2188 10.279 10.069 10.1292 10.0502 9.84831C10.0315 9.56741 9.8817 9.4176 9.6008 9.39887H7.80305C7.52215 9.4176 7.37234 9.56741 7.35361 9.84831ZM10.4997 13.8933C10.2188 13.912 10.069 14.0618 10.0502 14.3427C10.069 14.6236 10.2188 14.7734 10.4997 14.7921C10.7806 14.7734 10.9304 14.6236 10.9491 14.3427C10.9304 14.0618 10.7806 13.912 10.4997 13.8933ZM12.2974 13.8933C12.0165 13.912 11.8667 14.0618 11.848 14.3427C11.8667 14.6236 12.0165 14.7734 12.2974 14.7921C12.5783 14.7734 12.7281 14.6236 12.7469 14.3427C12.7281 14.0618 12.5783 13.912 12.2974 13.8933Z" fill="#ADB5BD"/>
</g>
<defs>
<clipPath id="clip0_3_1137">
<rect width="12.69" height="15" fill="white" transform="matrix(1 0 0 -1 0.109863 16)"/>
</clipPath>
</defs>
</svg>
