<svg width="16" height="14" viewBox="0 0 16 14" fill="none" xmlns="http://www.w3.org/2000/svg">
<g clip-path="url(#clip0_2_529)">
<path d="M1.73947 0.395227C1.4311 0.23293 1.16331 0.289734 0.936097 0.565639C0.75757 0.874003 0.814374 1.14179 1.10651 1.36901L2.27505 2.14804C2.58341 2.32656 2.8512 2.26976 3.07842 1.97762C3.25695 1.66926 3.20014 1.40147 2.90801 1.17425L1.73947 0.395227ZM14.5934 1.36901C14.8693 1.14179 14.9261 0.874003 14.7638 0.565639C14.5366 0.289734 14.2688 0.23293 13.9604 0.395227L12.7919 1.17425C12.516 1.40147 12.4592 1.66926 12.6215 1.97762C12.8487 2.25353 13.1165 2.31033 13.4249 2.14804L14.5934 1.36901ZM0.643962 4.19298C0.286908 4.22544 0.0921518 4.4202 0.0596924 4.77725C0.0921518 5.1343 0.286908 5.32906 0.643962 5.36152H2.20201C2.55907 5.32906 2.75382 5.1343 2.78628 4.77725C2.75382 4.4202 2.55907 4.22544 2.20201 4.19298H0.643962ZM13.4979 4.19298C13.1408 4.22544 12.9461 4.4202 12.9136 4.77725C12.9461 5.1343 13.1408 5.32906 13.4979 5.36152H15.0559C15.413 5.32906 15.6078 5.1343 15.6402 4.77725C15.6078 4.4202 15.413 4.22544 15.0559 4.19298H13.4979ZM2.90801 8.38025C3.18391 8.15303 3.24072 7.88524 3.07842 7.57687C2.8512 7.30097 2.58341 7.24417 2.27505 7.40646L1.10651 8.18549C0.830604 8.4127 0.7738 8.6805 0.936097 8.98886C1.16331 9.26477 1.4311 9.32157 1.73947 9.15927L2.90801 8.38025ZM13.4249 7.40646C13.1165 7.24417 12.8487 7.30097 12.6215 7.57687C12.443 7.88524 12.4998 8.15303 12.7919 8.38025L13.9604 9.15927C14.2688 9.3378 14.5366 9.28099 14.7638 8.98886C14.9423 8.6805 14.8855 8.4127 14.5934 8.18549L13.4249 7.40646ZM10.9661 4.58249C10.9498 5.24791 10.7632 5.8403 10.4061 6.35965C10.325 6.48948 10.2276 6.63555 10.114 6.79785C9.77318 7.23605 9.44858 7.71483 9.14022 8.23418C8.89677 8.70484 8.74259 9.1755 8.67767 9.64616H9.87055C9.91924 9.35403 10.0166 9.07001 10.1627 8.7941C10.4061 8.37213 10.682 7.95827 10.9904 7.55253C11.1202 7.374 11.2501 7.19548 11.3799 7.01695C11.8668 6.31907 12.1184 5.50759 12.1346 4.58249C12.1021 3.36526 11.6802 2.35902 10.8687 1.56377C10.0734 0.75228 9.06718 0.330308 7.84995 0.297849C6.63273 0.330308 5.62648 0.75228 4.83123 1.56377C4.01974 2.35902 3.59777 3.36526 3.56531 4.58249C3.58154 5.50759 3.8331 6.31907 4.31999 7.01695C4.44983 7.19548 4.57967 7.374 4.70951 7.55253C5.01787 7.95827 5.29377 8.37213 5.53722 8.7941C5.68329 9.07001 5.78067 9.35403 5.82936 9.64616H7.02224C6.95732 9.1755 6.80314 8.70484 6.55969 8.23418C6.26756 7.71483 5.95108 7.23605 5.61025 6.79785C5.49665 6.63555 5.39115 6.48948 5.29377 6.35965C4.93672 5.8403 4.75008 5.24791 4.73385 4.58249C4.75008 3.70609 5.05033 2.96764 5.6346 2.36714C6.2351 1.78287 6.97355 1.48262 7.84995 1.46639C8.72636 1.48262 9.46481 1.78287 10.0653 2.36714C10.6496 2.96764 10.9498 3.70609 10.9661 4.58249ZM6.68142 4.58249C6.69764 4.2579 6.81125 3.98199 7.02224 3.75478C7.24945 3.54379 7.52536 3.43018 7.84995 3.41395C8.0934 3.39772 8.22324 3.26789 8.23947 3.02444C8.22324 2.78099 8.0934 2.65116 7.84995 2.63493C7.29814 2.65116 6.8356 2.8378 6.46231 3.19485C6.10526 3.56814 5.91862 4.03068 5.90239 4.58249C5.91862 4.82594 6.04846 4.95578 6.2919 4.97201C6.53535 4.95578 6.66519 4.82594 6.68142 4.58249ZM9.79752 10.8147V10.4252H5.90239V10.8147C5.91862 11.3665 6.10526 11.8291 6.46231 12.2023C6.8356 12.5594 7.29814 12.746 7.84995 12.7623C8.40176 12.746 8.86431 12.5594 9.23759 12.2023C9.59465 11.8291 9.78129 11.3665 9.79752 10.8147Z" fill="#6C757D"/>
</g>
<defs>
<clipPath id="clip0_2_529">
<rect width="15.7" height="13" fill="white" transform="matrix(1 0 0 -1 0 13.03)"/>
</clipPath>
</defs>
</svg>
