<svg width="14" height="13" viewBox="0 0 14 13" fill="none" xmlns="http://www.w3.org/2000/svg">
<g clip-path="url(#clip0_3_803)">
<path d="M4.45683 2.02061C4.66781 1.72847 4.65158 1.45257 4.40814 1.19289C4.116 0.981904 3.8401 0.998134 3.58042 1.24158L2.24147 2.7266L1.70589 2.19102C1.42999 1.9638 1.15408 1.9638 0.878176 2.19102C0.65096 2.46692 0.65096 2.74283 0.878176 3.01873L1.85196 3.99252C1.96557 4.10612 2.11163 4.16293 2.29016 4.16293C2.45246 4.1467 2.59041 4.08178 2.70402 3.96817L4.45683 2.02061ZM4.45683 5.91574C4.66781 5.6236 4.65158 5.3477 4.40814 5.08802C4.116 4.87704 3.8401 4.89326 3.58042 5.13671L2.24147 6.62173L1.70589 6.08615C1.42999 5.85893 1.15408 5.85893 0.878176 6.08615C0.65096 6.36205 0.65096 6.63796 0.878176 6.91386L1.85196 7.88765C1.96557 8.00126 2.11163 8.05806 2.29016 8.05806C2.45246 8.04183 2.59041 7.97691 2.70402 7.8633L4.45683 5.91574ZM5.96619 3.18915H12.5879C12.945 3.15669 13.1397 2.96193 13.1722 2.60488C13.1397 2.24782 12.945 2.05307 12.5879 2.02061H5.96619C5.60914 2.05307 5.41438 2.24782 5.38192 2.60488C5.41438 2.96193 5.60914 3.15669 5.96619 3.18915ZM5.38192 6.50001C5.41438 6.85706 5.60914 7.05182 5.96619 7.08428H12.5879C12.945 7.05182 13.1397 6.85706 13.1722 6.50001C13.1397 6.14295 12.945 5.9482 12.5879 5.91574H5.96619C5.60914 5.9482 5.41438 6.14295 5.38192 6.50001ZM4.60289 10.3951C4.63535 10.7522 4.83011 10.9469 5.18716 10.9794H12.5879C12.945 10.9469 13.1397 10.7522 13.1722 10.3951C13.1397 10.0381 12.945 9.84333 12.5879 9.81087H5.18716C4.83011 9.84333 4.63535 10.0381 4.60289 10.3951ZM3.04484 10.3951C3.04484 10.1679 2.97181 9.98128 2.82574 9.83521C2.67967 9.68915 2.49303 9.61611 2.26582 9.61611C2.0386 9.61611 1.85196 9.68915 1.70589 9.83521C1.55982 9.98128 1.48679 10.1679 1.48679 10.3951C1.48679 10.6224 1.55982 10.809 1.70589 10.9551C1.85196 11.1011 2.0386 11.1742 2.26582 11.1742C2.49303 11.1742 2.67967 11.1011 2.82574 10.9551C2.97181 10.809 3.04484 10.6224 3.04484 10.3951Z" fill="#212529"/>
</g>
<defs>
<clipPath id="clip0_3_803">
<rect width="12.56" height="13" fill="white" transform="matrix(1 0 0 -1 0.659912 13)"/>
</clipPath>
</defs>
</svg>
