<svg width="8" height="13" viewBox="0 0 8 13" fill="none" xmlns="http://www.w3.org/2000/svg">
<g clip-path="url(#clip0_2_396)">
<path d="M7.06648 6.06549C7.19548 6.20883 7.25998 6.37366 7.25998 6.55999C7.25998 6.74633 7.19548 6.91116 7.06648 7.05449L2.93848 11.1825C2.79515 11.3115 2.63031 11.376 2.44398 11.376C2.25765 11.376 2.09281 11.3115 1.94948 11.1825C1.82048 11.0392 1.75598 10.8743 1.75598 10.688C1.75598 10.5017 1.82048 10.3368 1.94948 10.1935L5.60448 6.55999L1.94948 2.92649C1.82048 2.78316 1.75598 2.61833 1.75598 2.43199C1.75598 2.24566 1.82048 2.08082 1.94948 1.93749C2.09281 1.80849 2.25765 1.74399 2.44398 1.74399C2.63031 1.74399 2.79515 1.80849 2.93848 1.93749L7.06648 6.06549Z" fill="#003768"/>
</g>
<defs>
<clipPath id="clip0_2_396">
<rect width="6.88" height="12" fill="white" transform="matrix(1 0 0 -1 0.380005 12.56)"/>
</clipPath>
</defs>
</svg>
