<svg width="12" height="11" viewBox="0 0 12 11" fill="none" xmlns="http://www.w3.org/2000/svg">
<g clip-path="url(#clip0_3_1351)">
<path d="M6.00987 2.20407C5.39814 2.21655 4.84258 2.34139 4.3432 2.5786C3.84383 2.80332 3.40063 3.10294 3.01362 3.47747C2.65157 3.81455 2.3457 4.16412 2.09601 4.52616C1.85881 4.88821 1.67154 5.2128 1.53422 5.49995C1.67154 5.78709 1.85881 6.11168 2.09601 6.47373C2.3457 6.83578 2.65157 7.18534 3.01362 7.52242C3.40063 7.89695 3.84383 8.19657 4.3432 8.42129C4.84258 8.6585 5.39814 8.78334 6.00987 8.79583C6.62161 8.78334 7.17716 8.6585 7.67654 8.42129C8.17591 8.19657 8.61911 7.89695 9.00613 7.52242C9.36817 7.18534 9.67404 6.83578 9.92373 6.47373C10.1609 6.11168 10.3482 5.78709 10.4855 5.49995C10.3482 5.2128 10.1609 4.88821 9.92373 4.52616C9.67404 4.16412 9.36817 3.81455 9.00613 3.47747C8.61911 3.10294 8.17591 2.80332 7.67654 2.5786C7.17716 2.34139 6.62161 2.21655 6.00987 2.20407ZM2.39564 2.82204C2.84508 2.39757 3.36942 2.04177 3.96867 1.75463C4.56792 1.46749 5.24832 1.31767 6.00987 1.30519C6.77142 1.31767 7.45182 1.46749 8.05107 1.75463C8.65032 2.04177 9.17467 2.39757 9.6241 2.82204C10.0611 3.23403 10.4231 3.6585 10.7102 4.09545C10.9974 4.53241 11.2159 4.92566 11.3657 5.27523C11.4281 5.42504 11.4281 5.57485 11.3657 5.72466C11.2159 6.07423 10.9974 6.46749 10.7102 6.90444C10.4231 7.34139 10.0611 7.76586 9.6241 8.17785C9.17467 8.60232 8.65032 8.95812 8.05107 9.24526C7.45182 9.53241 6.77142 9.68222 6.00987 9.6947C5.24832 9.68222 4.56792 9.53241 3.96867 9.24526C3.36942 8.95812 2.84508 8.60232 2.39564 8.17785C1.95869 7.76586 1.59664 7.34139 1.3095 6.90444C1.02236 6.46749 0.810121 6.07423 0.672793 5.72466C0.610371 5.57485 0.610371 5.42504 0.672793 5.27523C0.810121 4.92566 1.02236 4.53241 1.3095 4.09545C1.59664 3.6585 1.95869 3.23403 2.39564 2.82204ZM6.00987 6.99807C6.43434 6.98559 6.79015 6.84202 7.07729 6.56736C7.35194 6.28022 7.49551 5.92442 7.508 5.49995C7.49551 5.07548 7.35194 4.71967 7.07729 4.43253C6.79015 4.15787 6.43434 4.0143 6.00987 4.00182C5.99739 4.00182 5.99114 4.00182 5.99114 4.00182C5.99114 4.00182 5.9849 4.00182 5.97242 4.00182C5.99739 4.10169 6.00987 4.20157 6.00987 4.30144C5.99739 4.63852 5.87879 4.91942 5.65407 5.14414C5.42935 5.36886 5.14845 5.48746 4.81137 5.49995C4.71149 5.49995 4.61162 5.48746 4.51174 5.46249C4.51174 5.47498 4.51174 5.48122 4.51174 5.48122C4.51174 5.48122 4.51174 5.48746 4.51174 5.49995C4.52423 5.92442 4.6678 6.28022 4.94246 6.56736C5.2296 6.84202 5.5854 6.98559 6.00987 6.99807ZM6.00987 3.10294C6.44683 3.10294 6.84633 3.20906 7.20837 3.42129C7.57042 3.63353 7.8638 3.92691 8.08852 4.30144C8.30076 4.67598 8.40688 5.07548 8.40688 5.49995C8.40688 5.92442 8.30076 6.32392 8.08852 6.69845C7.8638 7.07298 7.57042 7.36636 7.20837 7.5786C6.84633 7.79083 6.44683 7.89695 6.00987 7.89695C5.57292 7.89695 5.17342 7.79083 4.81137 7.5786C4.44932 7.36636 4.15594 7.07298 3.93122 6.69845C3.71899 6.32392 3.61287 5.92442 3.61287 5.49995C3.61287 5.07548 3.71899 4.67598 3.93122 4.30144C4.15594 3.92691 4.44932 3.63353 4.81137 3.42129C5.17342 3.20906 5.57292 3.10294 6.00987 3.10294Z" fill="#212529"/>
</g>
<defs>
<clipPath id="clip0_3_1351">
<rect width="11.42" height="10" fill="white" transform="matrix(1 0 0 -1 0.299805 10.4999)"/>
</clipPath>
</defs>
</svg>
