<svg width="24" height="27" viewBox="0 0 24 27" fill="none" xmlns="http://www.w3.org/2000/svg">
<path d="M12 24.2734C12.4062 24.2734 12.8594 24.0703 13.3594 23.6641C13.8594 23.2578 14.375 22.5703 14.9062 21.6016C15.375 20.6641 15.75 19.5547 16.0312 18.2734H7.96875C8.25 19.5547 8.625 20.6641 9.09375 21.6016C9.625 22.5703 10.1406 23.2578 10.6406 23.6641C11.1406 24.0703 11.5938 24.2734 12 24.2734ZM7.6875 16.7734H16.3125C16.4375 15.8359 16.5 14.8359 16.5 13.7734C16.5 12.7109 16.4375 11.7109 16.3125 10.7734H7.6875C7.5625 11.7109 7.5 12.7109 7.5 13.7734C7.5 14.8359 7.5625 15.8359 7.6875 16.7734ZM7.96875 9.27344H16.0312C15.75 7.99219 15.375 6.88281 14.9062 5.94531C14.375 4.97656 13.8594 4.28906 13.3594 3.88281C12.8594 3.47656 12.4062 3.27344 12 3.27344C11.5938 3.27344 11.1406 3.47656 10.6406 3.88281C10.1406 4.28906 9.625 4.97656 9.09375 5.94531C8.625 6.88281 8.25 7.99219 7.96875 9.27344ZM17.8125 10.7734C17.9375 11.7422 18 12.7422 18 13.7734C18 14.8047 17.9375 15.8047 17.8125 16.7734H22.0781C22.3594 15.8047 22.5 14.8047 22.5 13.7734C22.5 12.7422 22.3594 11.7422 22.0781 10.7734H17.8125ZM21.5156 9.27344C20.8906 7.99219 20.0469 6.88281 18.9844 5.94531C17.9219 5.00781 16.7188 4.30469 15.375 3.83594C16.375 5.17969 17.1094 6.99219 17.5781 9.27344H21.5156ZM6.42188 9.27344C6.89062 6.99219 7.64062 5.17969 8.67188 3.83594C7.29688 4.30469 6.07812 5.00781 5.01562 5.94531C3.95312 6.88281 3.125 7.99219 2.53125 9.27344H6.42188ZM1.92188 10.7734C1.64062 11.7422 1.5 12.7422 1.5 13.7734C1.5 14.8047 1.64062 15.8047 1.92188 16.7734H6.1875C6.0625 15.8047 6 14.8047 6 13.7734C6 12.7422 6.0625 11.7422 6.1875 10.7734H1.92188ZM15.375 23.7109C16.7188 23.2422 17.9219 22.5391 18.9844 21.6016C20.0469 20.6641 20.875 19.5547 21.4688 18.2734H17.5781C17.1094 20.5547 16.375 22.3672 15.375 23.7109ZM8.67188 23.7109C7.64062 22.3672 6.89062 20.5547 6.42188 18.2734H2.53125C3.125 19.5547 3.95312 20.6641 5.01562 21.6016C6.07812 22.5391 7.29688 23.2422 8.67188 23.7109ZM12 25.7734C9.8125 25.7422 7.8125 25.2109 6 24.1797C4.1875 23.1172 2.71875 21.6484 1.59375 19.7734C0.53125 17.8672 0 15.8672 0 13.7734C0 11.6797 0.53125 9.67969 1.59375 7.77344C2.71875 5.89844 4.1875 4.42969 6 3.36719C7.8125 2.33594 9.8125 1.80469 12 1.77344C14.1875 1.80469 16.1875 2.33594 18 3.36719C19.8125 4.42969 21.2812 5.89844 22.4062 7.77344C23.4688 9.67969 24 11.6797 24 13.7734C24 15.8672 23.4688 17.8672 22.4062 19.7734C21.2812 21.6484 19.8125 23.1172 18 24.1797C16.1875 25.2109 14.1875 25.7422 12 25.7734Z" fill="#212529"/>
</svg>
