<svg width="12" height="13" viewBox="0 0 12 13" fill="none" xmlns="http://www.w3.org/2000/svg">
<g clip-path="url(#clip0_3_1184)">
<path d="M6.16998 2.08C6.97748 2.08 7.71415 2.27834 8.37998 2.675C9.04581 3.0575 9.58415 3.59584 9.99498 4.29C10.3916 4.98417 10.59 5.72084 10.59 6.5C10.59 7.27917 10.3916 8.01584 9.99498 8.71C9.58415 9.40417 9.04581 9.9425 8.37998 10.325C7.71415 10.7217 6.97748 10.92 6.16998 10.92C5.36248 10.92 4.62581 10.7217 3.95998 10.325C3.29415 9.9425 2.75581 9.40417 2.34498 8.71C1.94831 8.01584 1.74998 7.27917 1.74998 6.5C1.74998 5.72084 1.94831 4.98417 2.34498 4.29C2.75581 3.59584 3.29415 3.0575 3.95998 2.675C4.62581 2.27834 5.36248 2.08 6.16998 2.08ZM6.16998 11.94C7.16165 11.9258 8.06831 11.685 8.88998 11.2175C9.71165 10.7358 10.3775 10.07 10.8875 9.22C11.3691 8.35584 11.61 7.44917 11.61 6.5C11.61 5.55084 11.3691 4.64417 10.8875 3.78C10.3775 2.93 9.71165 2.26417 8.88998 1.7825C8.06831 1.315 7.16165 1.07417 6.16998 1.06C5.17831 1.07417 4.27165 1.315 3.44998 1.7825C2.62831 2.26417 1.96248 2.93 1.45248 3.78C0.970814 4.64417 0.72998 5.55084 0.72998 6.5C0.72998 7.44917 0.970814 8.35584 1.45248 9.22C1.96248 10.07 2.62831 10.7358 3.44998 11.2175C4.27165 11.685 5.17831 11.9258 6.16998 11.94ZM5.31998 8.2C5.00831 8.22834 4.83831 8.39834 4.80998 8.71C4.83831 9.02167 5.00831 9.19167 5.31998 9.22H7.01998C7.33165 9.19167 7.50165 9.02167 7.52998 8.71C7.50165 8.39834 7.33165 8.22834 7.01998 8.2H6.84998V6.33C6.82165 6.01834 6.65165 5.84834 6.33998 5.82H5.31998C5.00831 5.84834 4.83831 6.01834 4.80998 6.33C4.83831 6.64167 5.00831 6.81167 5.31998 6.84H5.82998V8.2H5.31998ZM6.16998 5.14C6.36831 5.14 6.53123 5.07625 6.65873 4.94875C6.78623 4.82125 6.84998 4.65834 6.84998 4.46C6.84998 4.26167 6.78623 4.09875 6.65873 3.97125C6.53123 3.84375 6.36831 3.78 6.16998 3.78C5.97165 3.78 5.80873 3.84375 5.68123 3.97125C5.55373 4.09875 5.48998 4.26167 5.48998 4.46C5.48998 4.65834 5.55373 4.82125 5.68123 4.94875C5.80873 5.07625 5.97165 5.14 6.16998 5.14Z" fill="#6C757D"/>
</g>
<defs>
<clipPath id="clip0_3_1184">
<rect width="10.88" height="12" fill="white" transform="matrix(1 0 0 -1 0.72998 12.5)"/>
</clipPath>
</defs>
</svg>
