<svg width="14" height="14" viewBox="0 0 14 14" fill="none" xmlns="http://www.w3.org/2000/svg">
<g clip-path="url(#clip0_3_1289)">
<path d="M12.0639 7.04001C12.0639 6.11491 11.8367 5.27097 11.3823 4.50817C10.9441 3.74538 10.3274 3.12865 9.53211 2.65798C8.73686 2.20355 7.89291 1.97634 7.00028 1.97634C6.10764 1.97634 5.2637 2.20355 4.46844 2.65798C3.67318 3.12865 3.05646 3.74538 2.61825 4.50817C2.16382 5.27097 1.93661 6.11491 1.93661 7.04001C1.93661 7.9651 2.16382 8.80905 2.61825 9.57184C3.05646 10.3346 3.67318 10.9514 4.46844 11.422C5.2637 11.8765 6.10764 12.1037 7.00028 12.1037C7.89291 12.1037 8.73686 11.8765 9.53211 11.422C10.3274 10.9514 10.9441 10.3346 11.3823 9.57184C11.8367 8.80905 12.0639 7.9651 12.0639 7.04001ZM0.768066 7.04001C0.784296 5.90393 1.0602 4.86523 1.59578 3.9239C2.14759 2.98258 2.91039 2.21978 3.88417 1.63551C4.87418 1.0837 5.91289 0.807797 7.00028 0.807797C8.08767 0.807797 9.12637 1.0837 10.1164 1.63551C11.0902 2.21978 11.853 2.98258 12.4048 3.9239C12.9404 4.86523 13.2163 5.90393 13.2325 7.04001C13.2163 8.17609 12.9404 9.21479 12.4048 10.1561C11.853 11.0974 11.0902 11.8602 10.1164 12.4445C9.12637 12.9963 8.08767 13.2722 7.00028 13.2722C5.91289 13.2722 4.87418 12.9963 3.88417 12.4445C2.91039 11.8602 2.14759 11.0974 1.59578 10.1561C1.0602 9.21479 0.784296 8.17609 0.768066 7.04001ZM4.90664 4.82465C5.00402 4.54875 5.16632 4.32965 5.39353 4.16735C5.62075 4.00505 5.88854 3.9239 6.19691 3.9239H7.60889C8.04709 3.94013 8.41226 4.09431 8.7044 4.38645C8.9803 4.66235 9.12637 5.01941 9.1426 5.45761C9.12637 6.04188 8.86669 6.4882 8.36357 6.79656L7.58455 7.23476C7.55209 7.59182 7.35733 7.78657 7.00028 7.81903C6.64322 7.78657 6.44847 7.59182 6.41601 7.23476V6.91828C6.41601 6.69107 6.51338 6.52066 6.70814 6.40705L7.7793 5.77409C7.90914 5.70917 7.97406 5.60368 7.97406 5.45761C7.95783 5.23039 7.83611 5.10867 7.60889 5.09244H6.19691C6.09953 5.09244 6.03461 5.13302 6.00215 5.21416V5.26285C5.83985 5.58745 5.58829 5.70106 5.24747 5.60368C4.92287 5.45761 4.80926 5.21416 4.90664 4.87334V4.82465ZM6.22125 9.37709C6.22125 9.14987 6.29428 8.96323 6.44035 8.81716C6.58642 8.67109 6.77306 8.59806 7.00028 8.59806C7.22749 8.59806 7.41413 8.67109 7.5602 8.81716C7.70627 8.96323 7.7793 9.14987 7.7793 9.37709C7.7793 9.6043 7.70627 9.79094 7.5602 9.93701C7.41413 10.0831 7.22749 10.1561 7.00028 10.1561C6.77306 10.1561 6.58642 10.0831 6.44035 9.93701C6.29428 9.79094 6.22125 9.6043 6.22125 9.37709Z" fill="#BCC7D1"/>
</g>
<defs>
<clipPath id="clip0_3_1289">
<rect width="12.56" height="13" fill="white" transform="matrix(1 0 0 -1 0.720215 13.54)"/>
</clipPath>
</defs>
</svg>
