<svg width="15" height="16" viewBox="0 0 15 16" fill="none" xmlns="http://www.w3.org/2000/svg">
<g clip-path="url(#clip0_2_388)">
<path d="M13.0927 8.06C13.0927 6.99258 12.8305 6.0188 12.3062 5.13865C11.8005 4.2585 11.0889 3.54689 10.1713 3.00382C9.25372 2.47947 8.27993 2.2173 7.24997 2.2173C6.22001 2.2173 5.24623 2.47947 4.32862 3.00382C3.41102 3.54689 2.69941 4.2585 2.19379 5.13865C1.66945 6.0188 1.40727 6.99258 1.40727 8.06C1.40727 9.12741 1.66945 10.1012 2.19379 10.9813C2.69941 11.8615 3.41102 12.5731 4.32862 13.1162C5.24623 13.6405 6.22001 13.9027 7.24997 13.9027C8.27993 13.9027 9.25372 13.6405 10.1713 13.1162C11.0889 12.5731 11.8005 11.8615 12.3062 10.9813C12.8305 10.1012 13.0927 9.12741 13.0927 8.06ZM0.05896 8.06C0.0776866 6.74913 0.396039 5.55063 1.01402 4.46449C1.65072 3.37835 2.53087 2.4982 3.65447 1.82404C4.79679 1.18734 5.99529 0.868984 7.24997 0.868984C8.50465 0.868984 9.70315 1.18734 10.8455 1.82404C11.9691 2.4982 12.8492 3.37835 13.4859 4.46449C14.1039 5.55063 14.4223 6.74913 14.441 8.06C14.4223 9.37086 14.1039 10.5694 13.4859 11.6555C12.8492 12.7416 11.9691 13.6218 10.8455 14.296C9.70315 14.9327 8.50465 15.251 7.24997 15.251C5.99529 15.251 4.79679 14.9327 3.65447 14.296C2.53087 13.6218 1.65072 12.7416 1.01402 11.6555C0.396039 10.5694 0.0776866 9.37086 0.05896 8.06ZM4.83424 5.50382C4.9466 5.18546 5.13387 4.93265 5.39604 4.74539C5.65821 4.55812 5.9672 4.46449 6.32301 4.46449H7.95222C8.45784 4.48322 8.87918 4.66112 9.21626 4.9982C9.53462 5.31655 9.70315 5.72853 9.72188 6.23415C9.70315 6.90831 9.40353 7.42329 8.823 7.7791L7.92413 8.28471C7.88668 8.6967 7.66196 8.92142 7.24997 8.95887C6.83799 8.92142 6.61327 8.6967 6.57581 8.28471V7.91955C6.57581 7.65737 6.68817 7.46074 6.91289 7.32966L8.14885 6.59932C8.29866 6.52442 8.37357 6.40269 8.37357 6.23415C8.35484 5.97198 8.21439 5.83153 7.95222 5.8128H6.32301C6.21065 5.8128 6.13574 5.85962 6.09829 5.95325V6.00943C5.91102 6.38397 5.62076 6.51505 5.2275 6.40269C4.85297 6.23415 4.72188 5.95325 4.83424 5.56V5.50382ZM6.3511 10.7566C6.3511 10.4945 6.43536 10.2791 6.6039 10.1106C6.77244 9.94202 6.9878 9.85775 7.24997 9.85775C7.51214 9.85775 7.7275 9.94202 7.89604 10.1106C8.06458 10.2791 8.14885 10.4945 8.14885 10.7566C8.14885 11.0188 8.06458 11.2342 7.89604 11.4027C7.7275 11.5712 7.51214 11.6555 7.24997 11.6555C6.9878 11.6555 6.77244 11.5712 6.6039 11.4027C6.43536 11.2342 6.3511 11.0188 6.3511 10.7566Z" fill="#6C757D"/>
</g>
<defs>
<clipPath id="clip0_2_388">
<rect width="14.5" height="15" fill="white" transform="matrix(1 0 0 -1 0 15.56)"/>
</clipPath>
</defs>
</svg>
