<svg width="13" height="11" viewBox="0 0 13 11" fill="none" xmlns="http://www.w3.org/2000/svg">
<path d="M6.10999 1.08C7.00061 1.08 7.81311 1.27834 8.54749 1.675C9.28186 2.0575 9.87561 2.59584 10.3287 3.29C10.7662 3.98417 10.985 4.72084 10.985 5.5C10.985 6.27917 10.7662 7.01584 10.3287 7.71C9.87561 8.40417 9.28186 8.9425 8.54749 9.325C7.81311 9.72167 7.00061 9.92 6.10999 9.92C5.21936 9.92 4.40686 9.72167 3.67249 9.325C2.93811 8.9425 2.34436 8.40417 1.89124 7.71C1.45374 7.01584 1.23499 6.27917 1.23499 5.5C1.23499 4.72084 1.45374 3.98417 1.89124 3.29C2.34436 2.59584 2.93811 2.0575 3.67249 1.675C4.40686 1.27834 5.21936 1.08 6.10999 1.08ZM6.10999 10.94C7.20374 10.9258 8.20374 10.685 9.10999 10.2175C10.0162 9.73584 10.7506 9.07 11.3131 8.22C11.8444 7.35584 12.11 6.44917 12.11 5.5C12.11 4.55084 11.8444 3.64417 11.3131 2.78C10.7506 1.93 10.0162 1.26417 9.10999 0.782502C8.20374 0.315002 7.20374 0.0741692 6.10999 0.0600023C5.01624 0.0741692 4.01624 0.315002 3.10999 0.782502C2.20374 1.26417 1.46936 1.93 0.90686 2.78C0.37561 3.64417 0.109985 4.55084 0.109985 5.5C0.109985 6.44917 0.37561 7.35584 0.90686 8.22C1.46936 9.07 2.20374 9.73584 3.10999 10.2175C4.01624 10.685 5.01624 10.9258 6.10999 10.94ZM5.17249 7.2C4.82874 7.22834 4.64124 7.39834 4.60999 7.71C4.64124 8.02167 4.82874 8.19167 5.17249 8.22H7.04749C7.39124 8.19167 7.57874 8.02167 7.60999 7.71C7.57874 7.39834 7.39124 7.22834 7.04749 7.2H6.85999V5.33C6.82874 5.01834 6.64124 4.84834 6.29749 4.82H5.17249C4.82874 4.84834 4.64124 5.01834 4.60999 5.33C4.64124 5.64167 4.82874 5.81167 5.17249 5.84H5.73499V7.2H5.17249ZM6.10999 4.14C6.32874 4.14 6.50842 4.07625 6.64905 3.94875C6.78967 3.82125 6.85999 3.65834 6.85999 3.46C6.85999 3.26167 6.78967 3.09875 6.64905 2.97125C6.50842 2.84375 6.32874 2.78 6.10999 2.78C5.89124 2.78 5.71155 2.84375 5.57092 2.97125C5.4303 3.09875 5.35999 3.26167 5.35999 3.46C5.35999 3.65834 5.4303 3.82125 5.57092 3.94875C5.71155 4.07625 5.89124 4.14 6.10999 4.14Z" fill="black"/>
</svg>
