<svg width="16" height="13" viewBox="0 0 16 13" fill="none" xmlns="http://www.w3.org/2000/svg">
<path d="M1.73935 0.415064C1.43098 0.252767 1.16319 0.30957 0.935975 0.585475C0.757448 0.89384 0.814252 1.16163 1.10639 1.38885L2.27493 2.16787C2.58329 2.3464 2.85108 2.2896 3.0783 1.99746C3.25682 1.6891 3.20002 1.42131 2.90788 1.19409L1.73935 0.415064ZM14.5933 1.38885C14.8692 1.16163 14.926 0.89384 14.7637 0.585475C14.5365 0.30957 14.2687 0.252767 13.9603 0.415064L12.7918 1.19409C12.5159 1.42131 12.4591 1.6891 12.6214 1.99746C12.8486 2.27337 13.1164 2.33017 13.4247 2.16787L14.5933 1.38885ZM0.64384 4.21282C0.286786 4.24528 0.0920297 4.44003 0.0595703 4.79709C0.0920297 5.15414 0.286786 5.3489 0.64384 5.38136H2.20189C2.55895 5.3489 2.7537 5.15414 2.78616 4.79709C2.7537 4.44003 2.55895 4.24528 2.20189 4.21282H0.64384ZM13.4978 4.21282C13.1407 4.24528 12.946 4.44003 12.9135 4.79709C12.946 5.15414 13.1407 5.3489 13.4978 5.38136H15.0558C15.4129 5.3489 15.6076 5.15414 15.6401 4.79709C15.6076 4.44003 15.4129 4.24528 15.0558 4.21282H13.4978ZM2.90788 8.40008C3.18379 8.17287 3.24059 7.90508 3.0783 7.59671C2.85108 7.32081 2.58329 7.264 2.27493 7.4263L1.10639 8.20533C0.830482 8.43254 0.773678 8.70033 0.935975 9.0087C1.16319 9.2846 1.43098 9.34141 1.73935 9.17911L2.90788 8.40008ZM13.4247 7.4263C13.1164 7.264 12.8486 7.32081 12.6214 7.59671C12.4428 7.90508 12.4996 8.17287 12.7918 8.40008L13.9603 9.17911C14.2687 9.35764 14.5365 9.30083 14.7637 9.0087C14.9422 8.70033 14.8854 8.43254 14.5933 8.20533L13.4247 7.4263ZM10.9659 4.60233C10.9497 5.26775 10.7631 5.86013 10.406 6.37948C10.3249 6.50932 10.2275 6.65539 10.1139 6.81769C9.77305 7.25589 9.44846 7.73466 9.14009 8.25401C8.89665 8.72468 8.74247 9.19534 8.67755 9.666H9.87043C9.91912 9.37386 10.0165 9.08984 10.1626 8.81394C10.406 8.39197 10.6819 7.97811 10.9903 7.57237C11.1201 7.39384 11.25 7.21531 11.3798 7.03679C11.8667 6.33891 12.1182 5.52742 12.1345 4.60233C12.102 3.3851 11.68 2.37886 10.8686 1.5836C10.0733 0.772117 9.06706 0.350144 7.84983 0.317685C6.6326 0.350144 5.62636 0.772117 4.83111 1.5836C4.01962 2.37886 3.59765 3.3851 3.56519 4.60233C3.58142 5.52742 3.83298 6.33891 4.31987 7.03679C4.44971 7.21531 4.57955 7.39384 4.70938 7.57237C5.01775 7.97811 5.29365 8.39197 5.5371 8.81394C5.68317 9.08984 5.78054 9.37386 5.82923 9.666H7.02212C6.9572 9.19534 6.80302 8.72468 6.55957 8.25401C6.26744 7.73466 5.95096 7.25589 5.61013 6.81769C5.49652 6.65539 5.39103 6.50932 5.29365 6.37948C4.9366 5.86013 4.74996 5.26775 4.73373 4.60233C4.74996 3.72592 5.05021 2.98747 5.63448 2.38697C6.23498 1.8027 6.97343 1.50245 7.84983 1.48622C8.72624 1.50245 9.46469 1.8027 10.0652 2.38697C10.6495 2.98747 10.9497 3.72592 10.9659 4.60233ZM6.68129 4.60233C6.69752 4.27773 6.81113 4.00183 7.02212 3.77461C7.24933 3.56363 7.52524 3.45002 7.84983 3.43379C8.09328 3.41756 8.22312 3.28772 8.23935 3.04428C8.22312 2.80083 8.09328 2.67099 7.84983 2.65476C7.29802 2.67099 6.83548 2.85764 6.46219 3.21469C6.10514 3.58797 5.9185 4.05052 5.90227 4.60233C5.9185 4.84578 6.04833 4.97561 6.29178 4.99184C6.53523 4.97561 6.66506 4.84578 6.68129 4.60233ZM9.7974 10.8345V10.445H5.90227V10.8345C5.9185 11.3863 6.10514 11.8489 6.46219 12.2222C6.83548 12.5792 7.29802 12.7659 7.84983 12.7821C8.40164 12.7659 8.86419 12.5792 9.23747 12.2222C9.59453 11.8489 9.78117 11.3863 9.7974 10.8345Z" fill="#6C757D"/>
</svg>
