<svg width="32" height="30" viewBox="0 0 32 30" fill="none" xmlns="http://www.w3.org/2000/svg">
<g clip-path="url(#clip0_3_1140)">
<path d="M6.70158 21.7444C6.68286 21.3698 6.55177 21.0515 6.30833 20.7893C6.04615 20.5459 5.7278 20.4148 5.35327 20.3961H2.65664C2.37574 20.3773 2.22593 20.2275 2.2072 19.9466V11.8567C2.22593 11.5758 2.37574 11.426 2.65664 11.4073H13.4432C13.7241 11.426 13.8739 11.5758 13.8926 11.8567V19.9466C13.8739 20.2275 13.7241 20.3773 13.4432 20.3961H9.53866C9.23904 20.3961 8.97686 20.4897 8.75215 20.677L6.70158 22.1938V21.7444ZM6.70158 23.8792L9.53866 21.7444H13.4432C13.9488 21.7257 14.3701 21.5478 14.7072 21.2107C15.0443 20.8736 15.2222 20.4522 15.2409 19.9466V11.8567C15.2222 11.3511 15.0443 10.9298 14.7072 10.5927C14.3701 10.2556 13.9488 10.0777 13.4432 10.059H2.65664C2.15102 10.0777 1.72967 10.2556 1.39259 10.5927C1.05552 10.9298 0.877613 11.3511 0.858887 11.8567V19.9466C0.877613 20.4522 1.05552 20.8736 1.39259 21.2107C1.72967 21.5478 2.15102 21.7257 2.65664 21.7444H4.00495H5.35327V23.0927V23.2051V23.4017V23.9916C5.35327 24.1788 5.43754 24.3099 5.60608 24.3848C5.77462 24.4597 5.93379 24.4504 6.08361 24.3567L6.56113 23.9916L6.70158 23.8792ZM5.12855 14.1039C4.71656 14.1414 4.49185 14.3661 4.45439 14.7781C4.49185 15.1901 4.71656 15.4148 5.12855 15.4522H10.9712C11.3832 15.4148 11.608 15.1901 11.6454 14.7781C11.608 14.3661 11.3832 14.1414 10.9712 14.1039H5.12855ZM5.12855 16.8006C4.71656 16.838 4.49185 17.0627 4.45439 17.4747C4.49185 17.8867 4.71656 18.1114 5.12855 18.1489H8.27462C8.6866 18.1114 8.91132 17.8867 8.94877 17.4747C8.91132 17.0627 8.6866 16.838 8.27462 16.8006H5.12855Z" fill="#ADB5BD"/>
</g>
<rect x="11.5298" y="0.67" width="19.53" height="14.16" rx="7.08" fill="#DC3545"/>
<path d="M17.233 11.2869C16.6539 11.2869 16.1557 11.1724 15.7382 10.9435C15.3275 10.7146 15.011 10.4116 14.7888 10.0345C14.5733 9.6507 14.4656 9.23323 14.4656 8.7821H15.8493C15.8493 9.03797 15.9065 9.26353 16.021 9.4588C16.1422 9.65407 16.3072 9.80893 16.5159 9.9234C16.7246 10.0311 16.967 10.085 17.2431 10.085C17.5326 10.085 17.7818 10.0244 17.9905 9.9032C18.1992 9.782 18.3575 9.61703 18.4652 9.4083C18.5797 9.19957 18.6369 8.96053 18.6369 8.6912C18.6369 8.4286 18.5797 8.19293 18.4652 7.9842C18.3575 7.76873 18.1992 7.6004 17.9905 7.4792C17.7885 7.35127 17.5427 7.2873 17.2532 7.2873C17.0108 7.2873 16.7819 7.33443 16.5664 7.4287C16.3509 7.52297 16.1826 7.64753 16.0614 7.8024H14.7383L15.112 3.722H19.3843V4.9441H15.7382L16.2432 4.5502L16.0008 7.0954L15.6574 6.9944C15.8527 6.7722 16.0917 6.58703 16.3745 6.4389C16.6573 6.29077 17.0142 6.2167 17.4451 6.2167C17.9905 6.2167 18.4551 6.3278 18.8389 6.55C19.2227 6.7722 19.5156 7.06847 19.7176 7.4388C19.9196 7.8024 20.0206 8.19967 20.0206 8.6306V8.7619C20.0206 9.19957 19.9129 9.6103 19.6974 9.9941C19.4819 10.3779 19.1655 10.691 18.748 10.9334C18.3373 11.1691 17.8323 11.2869 17.233 11.2869ZM20.7854 9.5699V8.0145L23.674 3.52L24.7547 4.2573L22.2095 8.2367L22.3307 8.4387H26.8555V9.5699H20.7854ZM24.6436 11.095V5.8127H25.9667V11.095H24.6436Z" fill="white"/>
<defs>
<clipPath id="clip0_3_1140">
<rect width="14.5" height="15" fill="white" transform="matrix(1 0 0 -1 0.799805 24.75)"/>
</clipPath>
</defs>
</svg>
