<svg width="25" height="27" viewBox="0 0 25 27" fill="none" xmlns="http://www.w3.org/2000/svg">
<g clip-path="url(#clip0_1_91)">
<path d="M12.33 3.27344C14.2362 3.30469 15.9862 3.77344 17.58 4.67969C19.1737 5.61719 20.455 6.89844 21.4237 8.52344C22.3612 10.1797 22.83 11.9297 22.83 13.7734C22.83 15.6172 22.3612 17.3672 21.4237 19.0234C20.455 20.6484 19.1737 21.9297 17.58 22.8672C15.9862 23.7734 14.2362 24.2422 12.33 24.2734C10.4237 24.2422 8.67374 23.7734 7.07999 22.8672C5.48624 21.9297 4.20499 20.6484 3.23624 19.0234C2.29874 17.3672 1.82999 15.6172 1.82999 13.7734C1.82999 11.9297 2.29874 10.1797 3.23624 8.52344C4.20499 6.89844 5.48624 5.61719 7.07999 4.67969C8.67374 3.77344 10.4237 3.30469 12.33 3.27344ZM12.33 25.7734C14.5175 25.7422 16.5175 25.2109 18.33 24.1797C20.1425 23.1172 21.6112 21.6484 22.7362 19.7734C23.7987 17.8672 24.33 15.8672 24.33 13.7734C24.33 11.6797 23.7987 9.67969 22.7362 7.77344C21.6112 5.89844 20.1425 4.42969 18.33 3.36719C16.5175 2.33594 14.5175 1.80469 12.33 1.77344C10.1425 1.80469 8.14249 2.33594 6.32999 3.36719C4.51749 4.42969 3.04874 5.89844 1.92374 7.77344C0.861237 9.67969 0.329987 11.6797 0.329987 13.7734C0.329987 15.8672 0.861237 17.8672 1.92374 19.7734C3.04874 21.6484 4.51749 23.1172 6.32999 24.1797C8.14249 25.2109 10.1425 25.7422 12.33 25.7734ZM12.33 16.7734C12.7675 16.7734 13.1269 16.9141 13.4081 17.1953C13.6894 17.4766 13.83 17.8359 13.83 18.2734C13.83 18.7109 13.6894 19.0703 13.4081 19.3516C13.1269 19.6328 12.7675 19.7734 12.33 19.7734C11.8925 19.7734 11.5331 19.6328 11.2519 19.3516C10.9706 19.0703 10.83 18.7109 10.83 18.2734C10.83 17.8359 10.9706 17.4766 11.2519 17.1953C11.5331 16.9141 11.8925 16.7734 12.33 16.7734ZM12.33 21.2734C13.1737 21.2422 13.8769 20.9453 14.4394 20.3828C15.0019 19.8203 15.2987 19.1172 15.33 18.2734C15.33 17.5547 15.1112 16.9297 14.6737 16.3984C14.2675 15.8984 13.7362 15.5547 13.08 15.3672V6.27344C13.0487 5.80469 12.7987 5.55469 12.33 5.52344C11.8612 5.55469 11.6112 5.80469 11.58 6.27344V15.3672C10.9237 15.5547 10.3925 15.8984 9.98624 16.3984C9.54874 16.9297 9.32999 17.5547 9.32999 18.2734C9.36124 19.1172 9.65811 19.8203 10.2206 20.3828C10.7831 20.9453 11.4862 21.2422 12.33 21.2734ZM7.07999 9.64844C7.76749 9.58594 8.14249 9.21094 8.20499 8.52344C8.14249 7.83594 7.76749 7.46094 7.07999 7.39844C6.39249 7.46094 6.01749 7.83594 5.95499 8.52344C6.01749 9.21094 6.39249 9.58594 7.07999 9.64844ZM5.95499 13.7734C5.89249 13.0859 5.51749 12.7109 4.82999 12.6484C4.14249 12.7109 3.76749 13.0859 3.70499 13.7734C3.76749 14.4609 4.14249 14.8359 4.82999 14.8984C5.51749 14.8359 5.89249 14.4609 5.95499 13.7734ZM19.83 14.8984C20.5175 14.8359 20.8925 14.4609 20.955 13.7734C20.8925 13.0859 20.5175 12.7109 19.83 12.6484C19.1425 12.7109 18.7675 13.0859 18.705 13.7734C18.7675 14.4609 19.1425 14.8359 19.83 14.8984ZM18.705 8.52344C18.6425 7.83594 18.2675 7.46094 17.58 7.39844C16.8925 7.46094 16.5175 7.83594 16.455 8.52344C16.5175 9.21094 16.8925 9.58594 17.58 9.64844C18.2675 9.58594 18.6425 9.21094 18.705 8.52344Z" fill="#212529"/>
</g>
<defs>
<clipPath id="clip0_1_91">
<rect width="24" height="26" fill="white" transform="matrix(1 0 0 -1 0.329987 26.75)"/>
</clipPath>
</defs>
</svg>
