<svg width="32" height="29" viewBox="0 0 32 29" fill="none" xmlns="http://www.w3.org/2000/svg">
<g clip-path="url(#clip0_3_1140)">
<path d="M6.70158 21.1194C6.68286 20.7448 6.55177 20.4265 6.30833 20.1643C6.04615 19.9209 5.7278 19.7898 5.35327 19.7711H2.65664C2.37574 19.7523 2.22593 19.6025 2.2072 19.3216V11.2317C2.22593 10.9508 2.37574 10.801 2.65664 10.7823H13.4432C13.7241 10.801 13.8739 10.9508 13.8926 11.2317V19.3216C13.8739 19.6025 13.7241 19.7523 13.4432 19.7711H9.53866C9.23904 19.7711 8.97686 19.8647 8.75215 20.052L6.70158 21.5688V21.1194ZM6.70158 23.2542L9.53866 21.1194H13.4432C13.9488 21.1007 14.3701 20.9228 14.7072 20.5857C15.0443 20.2486 15.2222 19.8272 15.2409 19.3216V11.2317C15.2222 10.7261 15.0443 10.3048 14.7072 9.9677C14.3701 9.63062 13.9488 9.45271 13.4432 9.43399H2.65664C2.15102 9.45271 1.72967 9.63062 1.39259 9.9677C1.05552 10.3048 0.877613 10.7261 0.858887 11.2317V19.3216C0.877613 19.8272 1.05552 20.2486 1.39259 20.5857C1.72967 20.9228 2.15102 21.1007 2.65664 21.1194H4.00495H5.35327V22.4677V22.5801V22.7767V23.3666C5.35327 23.5538 5.43754 23.6849 5.60608 23.7598C5.77462 23.8347 5.93379 23.8254 6.08361 23.7317L6.56113 23.3666L6.70158 23.2542ZM5.12855 13.4789C4.71656 13.5164 4.49185 13.7411 4.45439 14.1531C4.49185 14.5651 4.71656 14.7898 5.12855 14.8272H10.9712C11.3832 14.7898 11.608 14.5651 11.6454 14.1531C11.608 13.7411 11.3832 13.5164 10.9712 13.4789H5.12855ZM5.12855 16.1756C4.71656 16.213 4.49185 16.4377 4.45439 16.8497C4.49185 17.2617 4.71656 17.4864 5.12855 17.5239H8.27462C8.6866 17.4864 8.91132 17.2617 8.94877 16.8497C8.91132 16.4377 8.6866 16.213 8.27462 16.1756H5.12855Z" fill="#ADB5BD"/>
</g>
<rect x="11.5298" y="0.0450001" width="19.53" height="14.16" rx="7.08" fill="#DC3545"/>
<path d="M17.233 10.6619C16.6539 10.6619 16.1557 10.5474 15.7382 10.3185C15.3275 10.0896 15.011 9.78657 14.7888 9.4095C14.5733 9.0257 14.4656 8.60823 14.4656 8.1571H15.8493C15.8493 8.41297 15.9065 8.63853 16.021 8.8338C16.1422 9.02907 16.3072 9.18393 16.5159 9.2984C16.7246 9.40613 16.967 9.46 17.2431 9.46C17.5326 9.46 17.7818 9.3994 17.9905 9.2782C18.1992 9.157 18.3575 8.99203 18.4652 8.7833C18.5797 8.57457 18.6369 8.33553 18.6369 8.0662C18.6369 7.8036 18.5797 7.56793 18.4652 7.3592C18.3575 7.14373 18.1992 6.9754 17.9905 6.8542C17.7885 6.72627 17.5427 6.6623 17.2532 6.6623C17.0108 6.6623 16.7819 6.70943 16.5664 6.8037C16.3509 6.89797 16.1826 7.02253 16.0614 7.1774H14.7383L15.112 3.097H19.3843V4.3191H15.7382L16.2432 3.9252L16.0008 6.4704L15.6574 6.3694C15.8527 6.1472 16.0917 5.96203 16.3745 5.8139C16.6573 5.66577 17.0142 5.5917 17.4451 5.5917C17.9905 5.5917 18.4551 5.7028 18.8389 5.925C19.2227 6.1472 19.5156 6.44347 19.7176 6.8138C19.9196 7.1774 20.0206 7.57467 20.0206 8.0056V8.1369C20.0206 8.57457 19.9129 8.9853 19.6974 9.3691C19.4819 9.7529 19.1655 10.066 18.748 10.3084C18.3373 10.5441 17.8323 10.6619 17.233 10.6619ZM20.7854 8.9449V7.3895L23.674 2.895L24.7547 3.6323L22.2095 7.6117L22.3307 7.8137H26.8555V8.9449H20.7854ZM24.6436 10.47V5.1877H25.9667V10.47H24.6436Z" fill="white"/>
<defs>
<clipPath id="clip0_3_1140">
<rect width="14.5" height="15" fill="white" transform="matrix(1 0 0 -1 0.799805 24.125)"/>
</clipPath>
</defs>
</svg>
