<svg width="13" height="19" viewBox="0 0 13 19" fill="none" xmlns="http://www.w3.org/2000/svg">
<g clip-path="url(#clip0_3_1137)">
<path d="M4.20754 4.30618V7.00281H1.51091V4.30618H4.20754ZM1.51091 2.95786C1.13638 2.97659 0.818028 3.10768 0.555856 3.35112C0.31241 3.61329 0.181324 3.93165 0.162598 4.30618V7.00281C0.181324 7.37734 0.31241 7.69569 0.555856 7.95786C0.818028 8.20131 1.13638 8.33239 1.51091 8.35112H4.20754C4.58207 8.33239 4.90043 8.20131 5.1626 7.95786C5.40604 7.69569 5.53713 7.37734 5.55586 7.00281V4.30618C5.53713 3.93165 5.40604 3.61329 5.1626 3.35112C4.90043 3.10768 4.58207 2.97659 4.20754 2.95786H1.51091ZM4.20754 11.4972V14.1938H1.51091V11.4972H4.20754ZM1.51091 10.1489C1.13638 10.1676 0.818028 10.2987 0.555856 10.5421C0.31241 10.8043 0.181324 11.1227 0.162598 11.4972V14.1938C0.181324 14.5684 0.31241 14.8867 0.555856 15.1489C0.818028 15.3923 1.13638 15.5234 1.51091 15.5421H4.20754C4.58207 15.5234 4.90043 15.3923 5.1626 15.1489C5.40604 14.8867 5.53713 14.5684 5.55586 14.1938V11.4972C5.53713 11.1227 5.40604 10.8043 5.1626 10.5421C4.90043 10.2987 4.58207 10.1676 4.20754 10.1489H1.51091ZM8.70192 4.30618H11.3986V7.00281H8.70192V4.30618ZM7.35361 4.30618V7.00281C7.37234 7.37734 7.50342 7.69569 7.74687 7.95786C8.00904 8.20131 8.32739 8.33239 8.70192 8.35112H11.3986C11.7731 8.33239 12.0914 8.20131 12.3536 7.95786C12.5971 7.69569 12.7281 7.37734 12.7469 7.00281V4.30618C12.7281 3.93165 12.5971 3.61329 12.3536 3.35112C12.0914 3.10768 11.7731 2.97659 11.3986 2.95786H8.70192C8.32739 2.97659 8.00904 3.10768 7.74687 3.35112C7.50342 3.61329 7.37234 3.93165 7.35361 4.30618ZM2.18507 5.42977V5.87921C2.2038 6.16011 2.35361 6.30992 2.63451 6.32865H3.08395C3.36485 6.30992 3.51466 6.16011 3.53338 5.87921V5.42977C3.51466 5.14887 3.36485 4.99906 3.08395 4.98033H2.63451C2.35361 4.99906 2.2038 5.14887 2.18507 5.42977ZM2.63451 12.1713C2.35361 12.1901 2.2038 12.3399 2.18507 12.6208V13.0702C2.2038 13.3511 2.35361 13.5009 2.63451 13.5197H3.08395C3.36485 13.5009 3.51466 13.3511 3.53338 13.0702V12.6208C3.51466 12.3399 3.36485 12.1901 3.08395 12.1713H2.63451ZM9.37608 5.42977V5.87921C9.39481 6.16011 9.54462 6.30992 9.82552 6.32865H10.275C10.5559 6.30992 10.7057 6.16011 10.7244 5.87921V5.42977C10.7057 5.14887 10.5559 4.99906 10.275 4.98033H9.82552C9.54462 4.99906 9.39481 5.14887 9.37608 5.42977ZM7.35361 10.5983V15.0927C7.37234 15.3736 7.52215 15.5234 7.80305 15.5421H8.70192C8.98282 15.5234 9.13264 15.3736 9.15136 15.0927V13.2949C9.17009 13.014 9.3199 12.8642 9.6008 12.8455C9.8817 12.8642 10.0315 13.014 10.0502 13.2949C10.069 13.5758 10.2188 13.7257 10.4997 13.7444H12.2974C12.5783 13.7257 12.7281 13.5758 12.7469 13.2949V10.5983C12.7281 10.3174 12.5783 10.1676 12.2974 10.1489C12.0165 10.1676 11.8667 10.3174 11.848 10.5983C11.8293 10.8792 11.6795 11.029 11.3986 11.0478H10.4997C10.2188 11.029 10.069 10.8792 10.0502 10.5983C10.0315 10.3174 9.8817 10.1676 9.6008 10.1489H7.80305C7.52215 10.1676 7.37234 10.3174 7.35361 10.5983ZM10.4997 14.6433C10.2188 14.662 10.069 14.8118 10.0502 15.0927C10.069 15.3736 10.2188 15.5234 10.4997 15.5421C10.7806 15.5234 10.9304 15.3736 10.9491 15.0927C10.9304 14.8118 10.7806 14.662 10.4997 14.6433ZM12.2974 14.6433C12.0165 14.662 11.8667 14.8118 11.848 15.0927C11.8667 15.3736 12.0165 15.5234 12.2974 15.5421C12.5783 15.5234 12.7281 15.3736 12.7469 15.0927C12.7281 14.8118 12.5783 14.662 12.2974 14.6433Z" fill="#ADB5BD"/>
</g>
<defs>
<clipPath id="clip0_3_1137">
<rect width="12.69" height="15" fill="white" transform="matrix(1 0 0 -1 0.109863 16.75)"/>
</clipPath>
</defs>
</svg>
