<svg width="1309" height="345" viewBox="0 0 1309 345" fill="none" xmlns="http://www.w3.org/2000/svg">
<g clip-path="url(#clip0_82_22)">
<path d="M195.58 228.76C269.18 217.4 323.01 170.5 323.01 115.63C323.01 60.76 262.09 7.96 181.42 0.88C174.78 0.29 168.15 0 161.51 0C155.02 0 148.24 0.29 141.6 0.88C60.77 7.96 0 57.37 0 115.63C0 173.89 53.83 217.4 127.43 228.76C53.83 239.97 0 286.87 0 341.89V344.4H49.56V341.89C49.56 288.94 87.17 243.95 139.38 233.63V344.54H183.92V233.63C236.13 243.95 273.74 289.09 273.74 341.89V344.4H323.3V341.89C323.3 287.02 269.47 240.12 195.87 228.76H195.58ZM273.6 115.63C273.6 168.58 235.99 213.57 183.78 223.89V7.37C235.99 17.69 273.6 62.83 273.6 115.63ZM139.23 7.37V223.89C87.02 213.57 49.41 168.43 49.41 115.63C49.41 62.83 87.02 17.7 139.23 7.37Z" fill="black"/>
<path d="M437.17 344.4V11.3601H590.27C647.94 11.3601 692.34 46.7601 692.34 103.54C692.34 160.32 647.94 191.45 598.83 194.25L701.78 344.4H644.11L545.88 194.69H483.49V344.4H437.18H437.17ZM483.48 155.46H583.19C622.42 155.46 643.22 136.14 643.22 103.54C643.22 70.9401 622.42 51.6201 583.19 51.6201H483.48V155.6V155.45V155.46Z" fill="black"/>
<path d="M843.36 344.4V201.77L718.59 11.3601H773.46L867.41 159.15L960.47 11.3601H1014.3L889.52 201.77V344.4H843.21H843.36Z" fill="black"/>
<path d="M1150.3 344.4V51.4801H1038.35V11.3601H1309V51.4801H1197.05V344.4H1150.29H1150.3Z" fill="black"/>
</g>
<defs>
<clipPath id="clip0_82_22">
<rect width="1309" height="344.54" fill="white"/>
</clipPath>
</defs>
</svg>
