<svg width="16" height="17" viewBox="0 0 16 17" fill="none" xmlns="http://www.w3.org/2000/svg">
<path d="M8 8.5C8 8.63261 7.94732 8.75979 7.85355 8.85355C7.75979 8.94732 7.63261 9 7.5 9H3C2.86739 9 2.74021 8.94732 2.64645 8.85355C2.55268 8.75979 2.5 8.63261 2.5 8.5C2.5 8.36739 2.55268 8.24021 2.64645 8.14645C2.74021 8.05268 2.86739 8 3 8H7.5C7.63261 8 7.75979 8.05268 7.85355 8.14645C7.94732 8.24021 8 8.36739 8 8.5ZM3 5H11.5C11.6326 5 11.7598 4.94732 11.8536 4.85355C11.9473 4.75979 12 4.63261 12 4.5C12 4.36739 11.9473 4.24021 11.8536 4.14645C11.7598 4.05268 11.6326 4 11.5 4H3C2.86739 4 2.74021 4.05268 2.64645 4.14645C2.55268 4.24021 2.5 4.36739 2.5 4.5C2.5 4.63261 2.55268 4.75979 2.64645 4.85355C2.74021 4.94732 2.86739 5 3 5ZM6.5 12H3C2.86739 12 2.74021 12.0527 2.64645 12.1464C2.55268 12.2402 2.5 12.3674 2.5 12.5C2.5 12.6326 2.55268 12.7598 2.64645 12.8536C2.74021 12.9473 2.86739 13 3 13H6.5C6.63261 13 6.75979 12.9473 6.85355 12.8536C6.94732 12.7598 7 12.6326 7 12.5C7 12.3674 6.94732 12.2402 6.85355 12.1464C6.75979 12.0527 6.63261 12 6.5 12ZM14.3538 10.6462C14.3073 10.5998 14.2522 10.5629 14.1915 10.5377C14.1308 10.5126 14.0657 10.4996 14 10.4996C13.9343 10.4996 13.8692 10.5126 13.8085 10.5377C13.7478 10.5629 13.6927 10.5998 13.6462 10.6462L12 12.2931V7.5C12 7.36739 11.9473 7.24021 11.8536 7.14645C11.7598 7.05268 11.6326 7 11.5 7C11.3674 7 11.2402 7.05268 11.1464 7.14645C11.0527 7.24021 11 7.36739 11 7.5V12.2931L9.35375 10.6462C9.25993 10.5524 9.13268 10.4997 9 10.4997C8.86732 10.4997 8.74007 10.5524 8.64625 10.6462C8.55243 10.7401 8.49972 10.8673 8.49972 11C8.49972 11.1327 8.55243 11.2599 8.64625 11.3538L11.1462 13.8538C11.1927 13.9002 11.2478 13.9371 11.3085 13.9623C11.3692 13.9874 11.4343 14.0004 11.5 14.0004C11.5657 14.0004 11.6308 13.9874 11.6915 13.9623C11.7522 13.9371 11.8073 13.9002 11.8538 13.8538L14.3538 11.3538C14.4002 11.3073 14.4371 11.2522 14.4623 11.1915C14.4874 11.1308 14.5004 11.0657 14.5004 11C14.5004 10.9343 14.4874 10.8692 14.4623 10.8085C14.4371 10.7478 14.4002 10.6927 14.3538 10.6462Z" fill="#003768"/>
</svg>
