<svg width="13" height="14" viewBox="0 0 13 14" fill="none" xmlns="http://www.w3.org/2000/svg">
<g clip-path="url(#clip0_3_1194)">
<path d="M3.95658 2.62061C4.16757 2.32848 4.15134 2.05257 3.90789 1.7929C3.61576 1.58191 3.33985 1.59814 3.08018 1.84159L1.74123 3.3266L1.20565 2.79102C0.929742 2.56381 0.653837 2.56381 0.377932 2.79102C0.150716 3.06693 0.150716 3.34283 0.377932 3.61874L1.35171 4.59252C1.46532 4.70613 1.61139 4.76293 1.78992 4.76293C1.95221 4.7467 2.09017 4.68179 2.20377 4.56818L3.95658 2.62061ZM3.95658 6.51574C4.16757 6.22361 4.15134 5.9477 3.90789 5.68803C3.61576 5.47704 3.33985 5.49327 3.08018 5.73672L1.74123 7.22174L1.20565 6.68615C0.929742 6.45894 0.653837 6.45894 0.377932 6.68615C0.150716 6.96206 0.150716 7.23797 0.377932 7.51387L1.35171 8.48765C1.46532 8.60126 1.61139 8.65807 1.78992 8.65807C1.95221 8.64184 2.09017 8.57692 2.20377 8.46331L3.95658 6.51574ZM5.46595 3.78915H12.0877C12.4447 3.75669 12.6395 3.56194 12.6719 3.20488C12.6395 2.84783 12.4447 2.65307 12.0877 2.62061H5.46595C5.10889 2.65307 4.91414 2.84783 4.88168 3.20488C4.91414 3.56194 5.10889 3.75669 5.46595 3.78915ZM4.88168 7.10001C4.91414 7.45707 5.10889 7.65182 5.46595 7.68428H12.0877C12.4447 7.65182 12.6395 7.45707 12.6719 7.10001C12.6395 6.74296 12.4447 6.5482 12.0877 6.51574H5.46595C5.10889 6.5482 4.91414 6.74296 4.88168 7.10001ZM4.10265 10.9951C4.13511 11.3522 4.32987 11.547 4.68692 11.5794H12.0877C12.4447 11.547 12.6395 11.3522 12.6719 10.9951C12.6395 10.6381 12.4447 10.4433 12.0877 10.4109H4.68692C4.32987 10.4433 4.13511 10.6381 4.10265 10.9951ZM2.5446 10.9951C2.5446 10.7679 2.47156 10.5813 2.3255 10.4352C2.17943 10.2892 1.99279 10.2161 1.76557 10.2161C1.53836 10.2161 1.35171 10.2892 1.20565 10.4352C1.05958 10.5813 0.986546 10.7679 0.986546 10.9951C0.986546 11.2224 1.05958 11.409 1.20565 11.5551C1.35171 11.7011 1.53836 11.7742 1.76557 11.7742C1.99279 11.7742 2.17943 11.7011 2.3255 11.5551C2.47156 11.409 2.5446 11.2224 2.5446 10.9951Z" fill="#212529"/>
</g>
<defs>
<clipPath id="clip0_3_1194">
<rect width="12.56" height="13" fill="white" transform="matrix(1 0 0 -1 0.159668 13.6)"/>
</clipPath>
</defs>
</svg>
