<svg width="16" height="22" viewBox="0 0 16 22" fill="none" xmlns="http://www.w3.org/2000/svg">
<g clip-path="url(#clip0_1_274)">
<path d="M3.07167 2.40341C2.71267 2.40341 2.41779 2.5188 2.18701 2.74958C1.95622 2.98036 1.84083 3.27525 1.84083 3.63424V18.4042C1.84083 18.7632 1.95622 19.0581 2.18701 19.2889C2.41779 19.5197 2.71267 19.6351 3.07167 19.6351H12.9183C13.2773 19.6351 13.5722 19.5197 13.803 19.2889C14.0338 19.0581 14.1492 18.7632 14.1492 18.4042V3.63424C14.1492 3.27525 14.0338 2.98036 13.803 2.74958C13.5722 2.5188 13.2773 2.40341 12.9183 2.40341H3.07167ZM0.610001 3.63424C0.635643 2.9419 0.879245 2.36494 1.34081 1.90338C1.80237 1.44182 2.37932 1.19822 3.07167 1.17257H12.9183C13.6107 1.19822 14.1876 1.44182 14.6492 1.90338C15.1108 2.36494 15.3544 2.9419 15.38 3.63424V18.4042C15.3544 19.0966 15.1108 19.6735 14.6492 20.1351C14.1876 20.5967 13.6107 20.8403 12.9183 20.8659H3.07167C2.37932 20.8403 1.80237 20.5967 1.34081 20.1351C0.879245 19.6735 0.635643 19.0966 0.610001 18.4042V3.63424ZM3.68708 6.09591H12.3029C12.6876 6.12155 12.8927 6.32669 12.9183 6.71132C12.8927 7.09596 12.6876 7.3011 12.3029 7.32674H3.68708C3.30245 7.3011 3.09731 7.09596 3.07167 6.71132C3.09731 6.32669 3.30245 6.12155 3.68708 6.09591ZM3.68708 9.78841H12.3029C12.6876 9.81405 12.8927 10.0192 12.9183 10.4038C12.8927 10.7885 12.6876 10.9936 12.3029 11.0192H3.68708C3.30245 10.9936 3.09731 10.7885 3.07167 10.4038C3.09731 10.0192 3.30245 9.81405 3.68708 9.78841ZM3.68708 13.4809H8.61042C8.99505 13.5065 9.20019 13.7117 9.22583 14.0963C9.20019 14.481 8.99505 14.6861 8.61042 14.7117H3.68708C3.30245 14.6861 3.09731 14.481 3.07167 14.0963C3.09731 13.7117 3.30245 13.5065 3.68708 13.4809Z" fill="#6C757D"/>
</g>
<defs>
<clipPath id="clip0_1_274">
<rect width="14.77" height="21" fill="white" transform="matrix(1 0 0 -1 0.610001 21.5)"/>
</clipPath>
</defs>
</svg>
