<svg width="25" height="26" viewBox="0 0 25 26" fill="none" xmlns="http://www.w3.org/2000/svg">
<g clip-path="url(#clip0_1_80)">
<path d="M3.32999 4.02344C2.89249 4.02344 2.53311 4.16406 2.25186 4.44531C1.97061 4.72656 1.82999 5.08594 1.82999 5.52344V8.52344C1.82999 8.96094 1.97061 9.32031 2.25186 9.60156C2.53311 9.88281 2.89249 10.0234 3.32999 10.0234H21.33C21.7675 10.0234 22.1269 9.88281 22.4081 9.60156C22.6894 9.32031 22.83 8.96094 22.83 8.52344V5.52344C22.83 5.08594 22.6894 4.72656 22.4081 4.44531C22.1269 4.16406 21.7675 4.02344 21.33 4.02344H3.32999ZM0.329987 5.52344C0.361237 4.67969 0.658112 3.97656 1.22061 3.41406C1.78311 2.85156 2.48624 2.55469 3.32999 2.52344H21.33C22.1737 2.55469 22.8769 2.85156 23.4394 3.41406C24.0019 3.97656 24.2987 4.67969 24.33 5.52344V8.52344C24.2987 9.36719 24.0019 10.0703 23.4394 10.6328C22.8769 11.1953 22.1737 11.4922 21.33 11.5234H3.32999C2.48624 11.4922 1.78311 11.1953 1.22061 10.6328C0.658112 10.0703 0.361237 9.36719 0.329987 8.52344V5.52344ZM3.32999 16.0234C2.89249 16.0234 2.53311 16.1641 2.25186 16.4453C1.97061 16.7266 1.82999 17.0859 1.82999 17.5234V20.5234C1.82999 20.9609 1.97061 21.3203 2.25186 21.6016C2.53311 21.8828 2.89249 22.0234 3.32999 22.0234H21.33C21.7675 22.0234 22.1269 21.8828 22.4081 21.6016C22.6894 21.3203 22.83 20.9609 22.83 20.5234V17.5234C22.83 17.0859 22.6894 16.7266 22.4081 16.4453C22.1269 16.1641 21.7675 16.0234 21.33 16.0234H3.32999ZM0.329987 17.5234C0.361237 16.6797 0.658112 15.9766 1.22061 15.4141C1.78311 14.8516 2.48624 14.5547 3.32999 14.5234H21.33C22.1737 14.5547 22.8769 14.8516 23.4394 15.4141C24.0019 15.9766 24.2987 16.6797 24.33 17.5234V20.5234C24.2987 21.3672 24.0019 22.0703 23.4394 22.6328C22.8769 23.1953 22.1737 23.4922 21.33 23.5234H3.32999C2.48624 23.4922 1.78311 23.1953 1.22061 22.6328C0.658112 22.0703 0.361237 21.3672 0.329987 20.5234V17.5234ZM14.58 19.0234C14.6425 18.3359 15.0175 17.9609 15.705 17.8984C16.3925 17.9609 16.7675 18.3359 16.83 19.0234C16.7675 19.7109 16.3925 20.0859 15.705 20.1484C15.0175 20.0859 14.6425 19.7109 14.58 19.0234ZM15.705 5.89844C16.3925 5.96094 16.7675 6.33594 16.83 7.02344C16.7675 7.71094 16.3925 8.08594 15.705 8.14844C15.0175 8.08594 14.6425 7.71094 14.58 7.02344C14.6425 6.33594 15.0175 5.96094 15.705 5.89844ZM18.33 19.0234C18.3925 18.3359 18.7675 17.9609 19.455 17.8984C20.1425 17.9609 20.5175 18.3359 20.58 19.0234C20.5175 19.7109 20.1425 20.0859 19.455 20.1484C18.7675 20.0859 18.3925 19.7109 18.33 19.0234ZM19.455 5.89844C20.1425 5.96094 20.5175 6.33594 20.58 7.02344C20.5175 7.71094 20.1425 8.08594 19.455 8.14844C18.7675 8.08594 18.3925 7.71094 18.33 7.02344C18.3925 6.33594 18.7675 5.96094 19.455 5.89844Z" fill="#212529"/>
</g>
<defs>
<clipPath id="clip0_1_80">
<rect width="24" height="26" fill="white" transform="matrix(1 0 0 -1 0.329987 26)"/>
</clipPath>
</defs>
</svg>
