<svg width="16" height="16" viewBox="0 0 16 16" fill="none" xmlns="http://www.w3.org/2000/svg">
<g clip-path="url(#clip0_1_485)">
<path d="M12.3316 12.1699C12.0507 11.4958 11.6106 10.9527 11.0113 10.5407C10.4308 10.1475 9.75667 9.94148 8.98887 9.92275H7.19112C6.42333 9.94148 5.74917 10.1475 5.16865 10.5407C4.5694 10.9527 4.13869 11.4958 3.87651 12.1699C2.82783 11.0838 2.28475 9.73549 2.2473 8.125C2.28475 6.47706 2.85592 5.10066 3.96078 3.99579C5.06565 2.89092 6.44206 2.31976 8.09 2.2823C9.73794 2.31976 11.1143 2.89092 12.2192 3.99579C13.3241 5.10066 13.8952 6.47706 13.9327 8.125C13.8952 9.73549 13.3615 11.0838 12.3316 12.1699ZM11.1799 13.0688C10.281 13.6493 9.25105 13.949 8.09 13.9677C6.92895 13.949 5.89899 13.6493 5.00011 13.0688C5.11247 12.5445 5.36528 12.1138 5.75854 11.7767C6.1518 11.4583 6.62932 11.2898 7.19112 11.2711H8.98887C9.55067 11.2898 10.0282 11.4583 10.4215 11.7767C10.8147 12.1138 11.0769 12.5445 11.208 13.0688H11.1799ZM8.09 15.316C9.40086 15.2973 10.5994 14.9789 11.6855 14.361C12.7716 13.7243 13.6518 12.8441 14.326 11.7205C14.9627 10.5782 15.281 9.37968 15.281 8.125C15.281 6.87032 14.9627 5.67182 14.326 4.52949C13.6518 3.4059 12.7716 2.52575 11.6855 1.88904C10.5994 1.27107 9.40086 0.952715 8.09 0.933989C6.77914 0.952715 5.58064 1.27107 4.49449 1.88904C3.40835 2.52575 2.5282 3.4059 1.85404 4.52949C1.21734 5.67182 0.898987 6.87032 0.898987 8.125C0.898987 9.37968 1.21734 10.5782 1.85404 11.7205C2.5282 12.8441 3.40835 13.7243 4.49449 14.361C5.58064 14.9789 6.77914 15.2973 8.09 15.316ZM8.09 7.67556C7.65929 7.65684 7.33157 7.46957 7.10685 7.11376C6.91959 6.73923 6.91959 6.3647 7.10685 5.99017C7.33157 5.63436 7.65929 5.4471 8.09 5.42837C8.52071 5.4471 8.84843 5.63436 9.07314 5.99017C9.26041 6.3647 9.26041 6.73923 9.07314 7.11376C8.84843 7.46957 8.52071 7.65684 8.09 7.67556ZM5.61809 6.55197C5.65554 7.4883 6.06753 8.19991 6.85404 8.6868C7.67801 9.13624 8.50198 9.13624 9.32595 8.6868C10.1125 8.19991 10.5245 7.4883 10.5619 6.55197C10.5245 5.61564 10.1125 4.90403 9.32595 4.41713C8.50198 3.9677 7.67801 3.9677 6.85404 4.41713C6.06753 4.90403 5.65554 5.61564 5.61809 6.55197Z" fill="black"/>
</g>
<defs>
<clipPath id="clip0_1_485">
<rect width="14.5" height="15" fill="white" transform="matrix(1 0 0 -1 0.840027 15.625)"/>
</clipPath>
</defs>
</svg>
