<svg width="16" height="15" viewBox="0 0 16 15" fill="none" xmlns="http://www.w3.org/2000/svg">
<g clip-path="url(#clip0_3_1214)">
<path d="M3.36107 1.20787C2.66819 1.2266 2.08766 1.47005 1.6195 1.93821C1.15133 2.40638 0.907887 2.9869 0.88916 3.67978V11.3202C0.907887 12.0131 1.15133 12.5936 1.6195 13.0618C2.08766 13.53 2.66819 13.7734 3.36107 13.7921H12.7993C13.4922 13.7734 14.0727 13.53 14.5408 13.0618C15.009 12.5936 15.2525 12.0131 15.2712 11.3202V6.37641C15.2525 5.68353 15.009 5.10301 14.5408 4.63484C14.0727 4.16668 13.4922 3.92323 12.7993 3.9045H4.25995C3.84796 3.94196 3.62324 4.16668 3.58579 4.57866C3.62324 4.99065 3.84796 5.21537 4.25995 5.25282H12.7993C13.1176 5.25282 13.3798 5.36518 13.5858 5.5899C13.8105 5.79589 13.9229 6.05806 13.9229 6.37641V11.3202C13.9229 11.6386 13.8105 11.9008 13.5858 12.1068C13.3798 12.3315 13.1176 12.4438 12.7993 12.4438H3.36107C3.04272 12.4438 2.78055 12.3315 2.57455 12.1068C2.34983 11.9008 2.23747 11.6386 2.23747 11.3202V3.67978C2.23747 3.36143 2.34983 3.09926 2.57455 2.89327C2.78055 2.66855 3.04272 2.55619 3.36107 2.55619H13.6981C14.1101 2.51874 14.3349 2.29402 14.3723 1.88203C14.3349 1.47005 14.1101 1.24533 13.6981 1.20787H3.36107ZM11.6757 9.7472C11.9378 9.7472 12.1532 9.66293 12.3217 9.49439C12.4903 9.32585 12.5746 9.1105 12.5746 8.84832C12.5746 8.58615 12.4903 8.3708 12.3217 8.20226C12.1532 8.03372 11.9378 7.94945 11.6757 7.94945C11.4135 7.94945 11.1981 8.03372 11.0296 8.20226C10.8611 8.3708 10.7768 8.58615 10.7768 8.84832C10.7768 9.1105 10.8611 9.32585 11.0296 9.49439C11.1981 9.66293 11.4135 9.7472 11.6757 9.7472Z" fill="#003768"/>
</g>
<defs>
<clipPath id="clip0_3_1214">
<rect width="14.5" height="15" fill="white" transform="matrix(1 0 0 -1 0.830078 15)"/>
</clipPath>
</defs>
</svg>
