<svg width="64" height="64" viewBox="0 0 64 64" fill="none" xmlns="http://www.w3.org/2000/svg">
<rect width="64" height="64" fill="white"/>
<path d="M36.951 40.197C47.6541 38.558 55.491 31.75 55.491 23.784C55.491 15.818 46.6315 8.16 34.8858 7.13C33.9234 7.05 32.9519 7 31.9995 7H31.9895C31.0371 7 30.0656 7.04 29.1032 7.13C17.3584 8.16 8.5 15.327 8.5 23.793C8.5 32.259 16.3368 38.567 27.05 40.206C16.3368 41.846 8.5 48.653 8.5 56.62V56.99H15.6952V56.62C15.6952 48.943 21.1671 42.406 28.7633 40.906V57H35.2467V40.906C42.843 42.405 48.3148 48.943 48.3148 56.62V56.99H55.5V56.62C55.5 48.653 47.6632 41.846 36.95 40.207V40.197H36.951ZM48.2948 23.793C48.2948 31.47 42.8229 38.007 35.2267 39.507V8.07C42.8229 9.569 48.2948 16.107 48.2948 23.784V23.794V23.793ZM28.7533 8.07V39.497C21.157 37.998 15.6852 31.46 15.6852 23.783C15.6852 16.106 21.157 9.579 28.7533 8.07Z" fill="#1E1E1E"/>
</svg>
